<svg xmlns="http://www.w3.org/2000/svg" viewBox="0 0 1200 520" role="img" aria-label="Codex Presence dark desktop dashboard">
  <defs>
    <filter id="shadow" x="-20%" y="-20%" width="140%" height="160%"><feDropShadow dx="0" dy="22" stdDeviation="28" flood-color="#000" flood-opacity=".55"/></filter>
    <linearGradient id="fade" x1="0" y1="0" x2="1" y2="1"><stop stop-color="#202020"/><stop offset="1" stop-color="#101010"/></linearGradient>
  </defs>
  <rect width="1200" height="520" rx="28" fill="#0d0d0d"/>
  <path d="M0 430C220 330 360 545 620 425s350-62 580-190v285H0z" fill="#151515"/>
  <circle cx="1080" cy="50" r="260" fill="#2ecf91" opacity=".035"/>
  <g font-family="Segoe UI Variable,Segoe UI,Arial">
    <g transform="translate(64 72)">
      <rect width="64" height="64" rx="16" fill="#171717" stroke="#3a3a3a"/>
      <path d="M17 20l13 12-13 12m23 0h9" fill="none" stroke="#f4f4f4" stroke-width="5" stroke-linecap="round" stroke-linejoin="round"/>
      <circle cx="51" cy="13" r="6" fill="#2ecf91"/>
    </g>
    <text x="64" y="202" fill="#f5f5f5" font-size="52" font-weight="700">Codex Presence</text>
    <text x="64" y="241" fill="#a9a9a9" font-size="20">Your active Codex workspace, quietly mirrored to Discord.</text>
    <g font-size="16">
      <circle cx="70" cy="312" r="5" fill="#2ecf91"/><text x="88" y="318" fill="#d8d8d8">Project and edited file, automatically</text>
      <circle cx="70" cy="352" r="5" fill="#2ecf91"/><text x="88" y="358" fill="#d8d8d8">One stable timer for the whole Codex session</text>
      <circle cx="70" cy="392" r="5" fill="#2ecf91"/><text x="88" y="398" fill="#d8d8d8">Local-first privacy with optional SSH workspaces</text>
    </g>
    <g transform="translate(600 40)" filter="url(#shadow)">
      <rect width="540" height="440" rx="18" fill="#121212" stroke="#303030"/>
      <rect width="540" height="42" rx="18" fill="#0d0d0d"/>
      <rect y="24" width="540" height="18" fill="#0d0d0d"/>
      <rect x="14" y="10" width="22" height="22" rx="6" fill="none" stroke="#f2f2f2" stroke-width="1.3"/>
      <path d="M20 16l4 4-4 4m8 0h4" fill="none" stroke="#f2f2f2" stroke-width="1.7" stroke-linecap="round"/>
      <circle cx="35" cy="14" r="2" fill="#2ecf91"/>
      <text x="46" y="26" fill="#ededed" font-size="13" font-weight="600">Codex Presence</text>
      <g stroke="#b7b7b7" stroke-width="1.1" stroke-linecap="round">
        <path d="M462 21h10"/>
        <path d="M502 16l10 10m0-10l-10 10"/>
      </g>

      <text x="26" y="86" fill="#f4f4f4" font-size="24" font-weight="700">Presence</text>
      <text x="27" y="110" fill="#9b9b9b" font-size="12">Current Codex activity shared with Discord</text>
      <rect x="392" y="66" width="122" height="26" rx="13" fill="#14372d"/>
      <circle cx="408" cy="79" r="4" fill="#36d399"/><text x="420" y="83" fill="#36d399" font-size="11" font-weight="700">Live on Discord</text>

      <rect x="24" y="126" width="492" height="236" rx="14" fill="url(#fade)" stroke="#303030"/>
      <text x="42" y="153" fill="#848484" font-size="10" font-weight="700" letter-spacing="1">NOW EDITING</text>
      <text x="41" y="188" fill="#f4f4f4" font-size="23" font-weight="700">codex-discord-presence</text>
      <text x="42" y="212" fill="#b7b7b7" font-size="12">src/discord-ipc.js</text>
      <line x1="42" y1="235" x2="498" y2="235" stroke="#262626"/>
      <g font-size="9" font-weight="700" letter-spacing="1" fill="#848484">
        <text x="42" y="262">SIGNAL</text>
        <text x="200" y="262">WORKSPACE</text>
        <text x="356" y="262">CODEX SESSION</text>
      </g>
      <g font-size="12" font-weight="600" fill="#f2f2f2">
        <text x="42" y="286">Desktop task</text>
        <text x="200" y="286">Local desktop</text>
        <text x="356" y="286">03:42:18</text>
      </g>
      <rect x="42" y="308" width="456" height="30" rx="10" fill="#181818" stroke="#262626"/>
      <text x="56" y="327" fill="#9b9b9b" font-size="11">◇  No prompt content or tokens leave this device</text>

      <line x1="0" y1="374" x2="540" y2="374" stroke="#262626"/>
      <rect y="375" width="540" height="65" fill="#0d0d0d"/>
      <rect x="24" y="390" width="152" height="36" rx="9" fill="#eee"/>
      <text x="52" y="413" fill="#0e0e0e" font-size="11" font-weight="700">Ⅱ   Pause presence</text>
      <rect x="188" y="390" width="128" height="36" rx="9" fill="#1f1f1f" stroke="#303030"/>
      <text x="214" y="413" fill="#f2f2f2" font-size="11" font-weight="700">⚙   Settings</text>
      <rect x="328" y="390" width="106" height="36" rx="9" fill="#141414"/>
      <text x="352" y="413" fill="#b7b7b7" font-size="11" font-weight="700">✚   Doctor</text>
      <text x="514" y="412" fill="#848484" font-size="10" text-anchor="end">2.2.0</text>
    </g>
  </g>
</svg>
