<svg xmlns="http://www.w3.org/2000/svg" viewBox="0 0 1200 520" role="img" aria-label="Codex Presence desktop dashboard and Discord integration">
  <defs>
    <linearGradient id="bg" x1="0" y1="0" x2="1" y2="1"><stop stop-color="#111116"/><stop offset="1" stop-color="#242238"/></linearGradient>
    <linearGradient id="accent" x1="0" y1="0" x2="1" y2="1"><stop stop-color="#a093ff"/><stop offset="1" stop-color="#5c5aee"/></linearGradient>
    <filter id="shadow"><feDropShadow dx="0" dy="24" stdDeviation="30" flood-color="#000" flood-opacity=".45"/></filter>
  </defs>
  <rect width="1200" height="520" rx="28" fill="url(#bg)"/>
  <circle cx="1060" cy="40" r="290" fill="#766cff" opacity=".08"/>
  <rect x="66" y="74" width="68" height="68" rx="17" fill="url(#accent)"/>
  <path d="M84 96l13 12-13 12m23 0h12" fill="none" stroke="#fff" stroke-width="6" stroke-linecap="round" stroke-linejoin="round"/>
  <text x="66" y="202" fill="#f5f5fa" font-family="Segoe UI,Arial" font-size="54" font-weight="700">Codex Presence</text>
  <text x="66" y="246" fill="#aaa9b8" font-family="Segoe UI,Arial" font-size="21">The Discord status that follows the task</text>
  <text x="66" y="278" fill="#aaa9b8" font-family="Segoe UI,Arial" font-size="21">you are actually viewing in Codex Desktop.</text>
  <g font-family="Segoe UI,Arial" font-size="17" fill="#dad9e5">
    <circle cx="76" cy="335" r="5" fill="#4cd98e"/><text x="94" y="341">Selected project and edited file</text>
    <circle cx="76" cy="377" r="5" fill="#4cd98e"/><text x="94" y="383">Stable whole-app timer</text>
    <circle cx="76" cy="419" r="5" fill="#4cd98e"/><text x="94" y="425">Local-first · SSH-ready · private</text>
  </g>
  <g filter="url(#shadow)">
    <rect x="608" y="52" width="516" height="416" rx="18" fill="#141419" stroke="#3d3a55"/>
    <rect x="608" y="52" width="516" height="94" rx="18" fill="#20202a"/>
    <rect x="608" y="128" width="516" height="18" fill="#20202a"/>
    <text x="642" y="91" fill="#f5f5fa" font-family="Segoe UI,Arial" font-size="19" font-weight="700">CODEX PRESENCE</text>
    <circle cx="647" cy="116" r="5" fill="#4cd98e"/><text x="660" y="122" fill="#4cd98e" font-family="Segoe UI,Arial" font-size="14">Discord connected</text>
    <text x="642" y="194" fill="#9d9cab" font-family="Segoe UI,Arial" font-size="12" font-weight="700">ACTIVE PROJECT</text>
    <text x="642" y="236" fill="#f5f5fa" font-family="Segoe UI,Arial" font-size="29" font-weight="700">vetements-app</text>
    <text x="642" y="274" fill="#aaa9b8" font-family="Segoe UI,Arial" font-size="16">apps/client/src/Customization.tsx</text>
    <text x="642" y="310" fill="#aaa9b8" font-family="Segoe UI,Arial" font-size="15">Session  03:42:18  ·  production</text>
    <rect x="642" y="360" width="144" height="45" rx="7" fill="#292936"/><text x="674" y="388" fill="#f5f5fa" font-family="Segoe UI,Arial" font-size="14">Pause presence</text>
    <rect x="798" y="360" width="116" height="45" rx="7" fill="#292936"/><text x="829" y="388" fill="#f5f5fa" font-family="Segoe UI,Arial" font-size="14">Settings</text>
    <rect x="926" y="360" width="126" height="45" rx="7" fill="#766fff"/><text x="953" y="388" fill="#fff" font-family="Segoe UI,Arial" font-size="14">Run doctor</text>
  </g>
</svg>
